<svg viewBox="0 0 512 512" fill="none" xmlns="http://www.w3.org/2000/svg" role="img" aria-label="Riskly">
  <defs>
    <clipPath id="rk-shield">
      <path d="M138 116 Q135 104 150 103 L362 103 Q377 104 374 116 C386 248 372 352 256 444 C140 352 126 248 138 116 Z" />
    </clipPath>
  </defs>
  <path d="M124 108 Q120 94 138 93 L374 93 Q392 94 388 108 C401 250 386 360 256 460 C126 360 111 250 124 108 Z" fill="#15233E" />
  <path d="M142 120 Q139 108 153 107 L359 107 Q373 108 370 120 C381 248 368 348 256 440 C144 348 131 248 142 120 Z" fill="#1C2C4E" />
  <g clip-path="url(#rk-shield)">
    <path d="M132 250 C150 198 196 170 268 164 C322 160 360 164 380 172 C388 175 386 186 378 188 C330 198 290 216 248 252 C214 282 180 292 156 282 C140 275 128 264 132 250 Z" fill="#34E0A0" />
    <path d="M256 252 C300 208 346 198 384 204 C372 314 326 390 258 448 C228 432 204 406 190 372 C214 332 236 292 256 252 Z" fill="#34E0A0" />
  </g>
</svg>
